<?xml version="1.0" encoding="UTF-8" standalone="no"?>
<!-- Created with Inkscape (http://www.inkscape.org/) -->

<svg
   width="450"
   height="200"
   viewBox="0 0 119.06249 52.916666"
   version="1.1"
   id="svg115"
   sodipodi:docname="lit-logo-borderless-and-text.svg"
   inkscape:version="1.2.2 (b0a8486541, 2022-12-01)"
   xmlns:inkscape="http://www.inkscape.org/namespaces/inkscape"
   xmlns:sodipodi="http://sodipodi.sourceforge.net/DTD/sodipodi-0.dtd"
   xmlns="http://www.w3.org/2000/svg"
   xmlns:svg="http://www.w3.org/2000/svg">
  <sodipodi:namedview
     id="namedview117"
     pagecolor="#ffffff"
     bordercolor="#000000"
     borderopacity="0.25"
     inkscape:showpageshadow="2"
     inkscape:pageopacity="0.0"
     inkscape:pagecheckerboard="true"
     inkscape:deskcolor="#d1d1d1"
     inkscape:document-units="mm"
     showgrid="false"
     inkscape:zoom="2.0926356"
     inkscape:cx="120.66124"
     inkscape:cy="103.45805"
     inkscape:window-width="1920"
     inkscape:window-height="1008"
     inkscape:window-x="0"
     inkscape:window-y="0"
     inkscape:window-maximized="1"
     inkscape:current-layer="layer1" />
  <defs
     id="defs112" />
  <g
     inkscape:label="Layer 1"
     inkscape:groupmode="layer"
     id="layer1">
    <path
       id="rect223-3"
       style="fill:#aa7dc0;fill-opacity:1;stroke:#945bb0;stroke-width:1.587;stroke-dasharray:none;stroke-opacity:1"
       d="M 35.839508,3.9150848 A 14.411523,22.955212 0 0 1 21.428203,26.86995 14.411523,22.955212 0 0 1 35.839508,49.824813 14.411523,22.955212 0 0 1 50.251865,26.86995 14.411523,22.955212 0 0 1 35.839508,3.9150848 Z" />
    <path
       id="rect223-5-6"
       style="fill:#6bab5b;fill-opacity:1;stroke:#3b972e;stroke-width:1.5875;stroke-dasharray:none;stroke-opacity:1"
       d="m 17.971224,6.6478558 a 7.3695135,7.3695135 0 0 1 -7.369403,7.3694022 7.3695135,7.3695135 0 0 1 7.369403,7.369402 7.3695135,7.3695135 0 0 1 7.36994,-7.369402 7.3695135,7.3695135 0 0 1 -7.36994,-7.3694022 z" />
    <path
       id="rect223-5-3-7"
       style="fill:#d66661;fill-opacity:1;stroke:#c93d39;stroke-width:1.5875;stroke-dasharray:none;stroke-opacity:1"
       d="M 13.789585,26.804751 A 12.577048,12.577048 0 0 1 1.212727,39.38161 12.577048,12.577048 0 0 1 13.789585,51.958468 12.577048,12.577048 0 0 1 26.367361,39.38161 12.577048,12.577048 0 0 1 13.789585,26.804751 Z" />
    <g
       aria-label="Lit.jl"
       id="text15979"
       style="font-size:31.75px;fill:#ffffff;fill-opacity:1;stroke:#8f8f8f;stroke-width:0.79375;stroke-dasharray:none;stroke-opacity:1"
       transform="translate(-4.6591071,2.4942468)">
      <path
         d="M 62.731564,34.514618 V 12.67099 h 2.961059 v 19.425171 h 11.038086 v 2.418457 z"
         style="-inkscape-font-specification:'Liberation Sans';fill:#ffffff;fill-opacity:1;stroke:#8f8f8f;stroke-width:0.79375;stroke-dasharray:none;stroke-opacity:1"
         id="path271" />
      <path
         d="M 79.90881,14.174774 V 11.50827 h 2.790527 v 2.666504 z m 0,20.339844 v -16.77417 h 2.790527 v 16.77417 z"
         style="-inkscape-font-specification:'Liberation Sans';fill:#ffffff;fill-opacity:1;stroke:#8f8f8f;stroke-width:0.79375;stroke-dasharray:none;stroke-opacity:1"
         id="path273" />
      <path
         d="m 93.427364,34.390594 q -1.37976,0.372071 -2.821533,0.372071 -3.348633,0 -3.348633,-3.798218 V 19.771332 h -1.937866 v -2.030884 h 2.046387 l 0.821655,-3.751709 h 1.860352 v 3.751709 h 3.100586 v 2.030884 h -3.100586 v 10.588501 q 0,1.209228 0.387573,1.705322 0.403076,0.480591 1.379761,0.480591 0.558105,0 1.612304,-0.217041 z"
         style="-inkscape-font-specification:'Liberation Sans';fill:#ffffff;fill-opacity:1;stroke:#8f8f8f;stroke-width:0.79375;stroke-dasharray:none;stroke-opacity:1"
         id="path275" />
      <path
         d="m 96.558956,34.514618 v -3.395142 h 3.023071 v 3.395142 z"
         style="-inkscape-font-specification:'Liberation Sans';fill:#ffffff;fill-opacity:1;stroke:#8f8f8f;stroke-width:0.79375;stroke-dasharray:none;stroke-opacity:1"
         id="path277" />
      <path
         d="M 104.60498,14.174774 V 11.50827 h 2.79052 v 2.666504 z m 2.79052,22.417236 q 0,2.371949 -0.93017,3.441651 -0.93018,1.069702 -2.79053,1.069702 -1.19372,0 -1.96887,-0.139526 v -2.154908 l 0.96118,0.09302 q 1.0697,0 1.50378,-0.558105 0.43409,-0.558106 0.43409,-2.170411 V 17.740448 h 2.79052 z"
         style="-inkscape-font-specification:'Liberation Sans';fill:#ffffff;fill-opacity:1;stroke:#8f8f8f;stroke-width:0.79375;stroke-dasharray:none;stroke-opacity:1"
         id="path279" />
      <path
         d="M 111.67431,34.514618 V 11.50827 h 2.79053 v 23.006348 z"
         style="-inkscape-font-specification:'Liberation Sans';fill:#ffffff;fill-opacity:1;stroke:#8f8f8f;stroke-width:0.79375;stroke-dasharray:none;stroke-opacity:1"
         id="path281" />
    </g>
  </g>
</svg>
