<?xml version="1.0" encoding="UTF-8" standalone="no"?>
<!-- Created with Inkscape (http://www.inkscape.org/) -->

<svg
   width="200"
   height="200"
   viewBox="0 0 52.916665 52.916666"
   version="1.1"
   id="svg115"
   sodipodi:docname="lit-logo.svg"
   inkscape:version="1.2.2 (b0a8486541, 2022-12-01)"
   xmlns:inkscape="http://www.inkscape.org/namespaces/inkscape"
   xmlns:sodipodi="http://sodipodi.sourceforge.net/DTD/sodipodi-0.dtd"
   xmlns="http://www.w3.org/2000/svg"
   xmlns:svg="http://www.w3.org/2000/svg">
  <sodipodi:namedview
     id="namedview117"
     pagecolor="#ffffff"
     bordercolor="#000000"
     borderopacity="0.25"
     inkscape:showpageshadow="2"
     inkscape:pageopacity="0.0"
     inkscape:pagecheckerboard="true"
     inkscape:deskcolor="#d1d1d1"
     inkscape:document-units="mm"
     showgrid="false"
     inkscape:zoom="2.5029734"
     inkscape:cx="164.00494"
     inkscape:cy="89.293799"
     inkscape:window-width="1920"
     inkscape:window-height="1008"
     inkscape:window-x="0"
     inkscape:window-y="0"
     inkscape:window-maximized="1"
     inkscape:current-layer="layer1" />
  <defs
     id="defs112" />
  <g
     inkscape:label="Layer 1"
     inkscape:groupmode="layer"
     id="layer1">
    <path
       id="rect223"
       style="fill:#9558b2;fill-opacity:1;stroke-width:1.5875;stroke:#000000;stroke-opacity:1;stroke-dasharray:none"
       d="M 35.839535,3.5034693 A 14.411523,22.955212 0 0 1 21.42823,26.458334 14.411523,22.955212 0 0 1 35.839535,49.413197 14.411523,22.955212 0 0 1 50.251892,26.458334 14.411523,22.955212 0 0 1 35.839535,3.5034693 Z" />
    <path
       id="rect223-5"
       style="fill:#389826;fill-opacity:1;stroke-width:1.5875;stroke:#000000;stroke-opacity:1;stroke-dasharray:none"
       d="m 17.971251,6.2362396 a 7.3695135,7.3695135 0 0 1 -7.369403,7.3694024 7.3695135,7.3695135 0 0 1 7.369403,7.369402 7.3695135,7.3695135 0 0 1 7.36994,-7.369402 7.3695135,7.3695135 0 0 1 -7.36994,-7.3694024 z" />
    <path
       id="rect223-5-3"
       style="fill:#cb3c33;fill-opacity:1;stroke-width:1.5875;stroke:#000000;stroke-opacity:1;stroke-dasharray:none"
       d="M 13.789612,26.393135 A 12.577048,12.577048 0 0 1 1.2127542,38.969994 12.577048,12.577048 0 0 1 13.789612,51.546852 12.577048,12.577048 0 0 1 26.367388,38.969994 12.577048,12.577048 0 0 1 13.789612,26.393135 Z" />
  </g>
</svg>
